Coordinates
version=1
nRows=6
nColumns=46
inDegrees=yes

Units are S.I. units (second, meters, Newtons, ...)
Angles are in degrees.

endheader
time	pelvis_tilt	pelvis_list	pelvis_rotation	pelvis_tx	pelvis_ty	pelvis_tz	bb_angle	bb_tx	bb_ty	bb_tz	hip_flexion_r	hip_adduction_r	hip_rotation_r	knee_angle_r	knee_angle_r_beta	ankle_angle_r	subtalar_angle_r	mtp_angle_r	crank_angle_r	hip_flexion_l	hip_adduction_l	hip_rotation_l	knee_angle_l	knee_angle_l_beta	ankle_angle_l	subtalar_angle_l	mtp_angle_l	crank_angle_l	lumbar_extension	lumbar_bending	lumbar_rotation	arm_flex_r	arm_add_r	arm_rot_r	elbow_flex_r	pro_sup_r	wrist_flex_r	wrist_dev_r	arm_flex_l	arm_add_l	arm_rot_l	elbow_flex_l	pro_sup_l	wrist_flex_l	wrist_dev_l
      2.50500000	    -14.53084784	     -4.09874707	     -3.66158778	      0.17752213	      1.04550134	     -0.30784945	      0.00000000	      0.50000000	      0.00000000	      0.25000000	     87.53891127	      0.66144212	      1.66657042	     96.54195394	      1.68497496	     18.39039556	     -6.14775495	      0.00000000	      0.00000000	     47.34414849	    -13.11880277	     -1.61624513	     65.05266227	      1.13538314	     -1.76334439	     -6.60149566	      0.00000000	      0.00000000	    -56.36045733	     -0.25148738	      5.82779987	     89.29542529	    -10.93789377	     39.22943913	     36.76102058	     35.48912566	      0.00000000	      0.00000000	     86.62944920	    -12.13920275	     35.46025416	     46.60722126	     40.89545301	      0.00000000	      0.00000000
      2.51000000	    -15.17995537	     -3.97714907	     -4.04113878	      0.17845277	      1.04565158	     -0.30796237	      0.00000000	      0.50000000	      0.00000000	      0.25000000	     88.02015475	      0.84973129	      1.75397568	     96.64467043	      1.68676770	     19.16694782	     -5.82515602	      0.00000000	      0.00000000	     47.34800994	    -13.22382182	     -2.03634588	     64.16908639	      1.11996184	     -1.27297183	     -6.35710566	      0.00000000	      0.00000000	    -56.18127511	     -0.49010295	      5.76617623	     89.29571298	    -10.74311851	     38.45345659	     37.11664666	     36.29967785	      0.00000000	      0.00000000	     86.03716350	    -12.50344660	     33.71838678	     48.65457321	     41.29071314	      0.00000000	      0.00000000
      2.51500000	    -15.80128962	     -4.00679069	     -4.12962749	      0.17913786	      1.04559217	     -0.30791491	      0.00000000	      0.50000000	      0.00000000	      0.25000000	     88.47479637	      0.86764342	      1.70399994	     96.78178952	      1.68916088	     19.93751849	     -5.58963147	      0.00000000	      0.00000000	     47.49183001	    -13.28324658	     -2.11209575	     63.37605590	      1.10612084	     -0.84876648	     -6.05146448	      0.00000000	      0.00000000	    -56.04823761	     -0.49150148	      5.98782723	     89.24532839	    -11.68882080	     39.02487143	     39.11029202	     36.90465527	      0.00000000	      0.00000000	     86.05758999	    -12.99269498	     34.54208093	     49.68921969	     41.73478199	      0.00000000	      0.00000000
      2.52000000	    -16.43426415	     -3.99464054	     -4.29321912	      0.17996873	      1.04556144	     -0.30779886	      0.00000000	      0.50000000	      0.00000000	      0.25000000	     88.92687523	      0.94499786	      1.67105896	     96.92021256	      1.69157682	     20.71341688	     -5.37212863	      0.00000000	      0.00000000	     47.56272202	    -13.34248458	     -2.25765604	     62.48891393	      1.09063729	     -0.33964986	     -5.76603546	      0.00000000	      0.00000000	    -55.89736272	     -0.57003011	      6.01541622	     89.21198209	    -12.20664393	     39.26029182	     40.58767175	     37.22745030	      0.00000000	      0.00000000	     85.82308409	    -13.64363046	     34.52857823	     51.34655498	     42.13778664	      0.00000000	      0.00000000
      2.52500000	    -16.98492288	     -3.90565384	     -4.44360152	      0.18095421	      1.04560790	     -0.30774798	      0.00000000	      0.50000000	      0.00000000	      0.25000000	     89.31222965	      0.97031996	      1.70210736	     97.10134332	      1.69473815	     21.51769545	     -5.09846604	      0.00000000	      0.00000000	     47.48765463	    -13.32420806	     -2.48024420	     61.53204790	      1.07393683	      0.16994018	     -5.50849909	      0.00000000	      0.00000000	    -55.84745828	     -0.67939933	      5.97936628	     89.17032976	    -12.43303153	     38.63367618	     41.83691413	     37.73948023	      0.00000000	      0.00000000	     85.39126300	    -13.92470681	     33.25539451	     53.02114494	     42.42344575	      0.00000000	      0.00000000
      2.53000000	    -17.35949191	     -3.83074883	     -4.09479575	      0.18162986	      1.04545805	     -0.30711602	      0.00000000	      0.50000000	      0.00000000	      0.25000000	     89.60282483	      0.68185336	      1.75722082	     97.47092227	      1.70118852	     22.35643767	     -4.97449465	      0.00000000	      0.00000000	     47.41271001	    -13.05393308	     -2.34360082	     60.61007154	      1.05784531	      0.65615947	     -5.05323369	      0.00000000	      0.00000000	    -55.93528757	     -0.54059738	      5.73628310	     89.11111687	    -12.66526981	     38.02760094	     43.10326484	     38.22378957	      0.00000000	      0.00000000	     85.28557273	    -14.24231563	     32.53103146	     54.35957587	     42.68960182	      0.00000000	      0.00000000
